<svg width="1200" height="1200" viewBox="0 0 1200 1200" fill="none" xmlns="http://www.w3.org/2000/svg">
<rect x="0.5" y="0.5" width="1199" height="1199" rx="119.5" fill="#2E8B57" stroke="#2E8B57"/>
<g filter="url(#filter0_d_124_30)">
<rect x="88.5" y="102.5" width="1023" height="995.403" rx="39.5" fill="#E6E6E6" stroke="#2E8B57"/>
<rect x="225.628" y="652.134" width="744.384" height="143.059" rx="4" fill="#E6E6E6" stroke="#2E8B57" stroke-width="8"/>
<rect x="225.628" y="874.37" width="744.384" height="143.059" rx="4" fill="#E6E6E6" stroke="#2E8B57" stroke-width="8"/>
<path d="M600.728 141.217C480.898 141.217 382.855 239.261 382.855 359.091C382.855 478.922 480.898 576.965 600.728 576.965C720.558 576.965 818.6 478.922 818.6 359.091C818.6 239.261 720.558 141.217 600.728 141.217ZM600.728 206.58C637.766 206.58 666.089 234.903 666.089 271.942C666.089 308.98 637.766 337.304 600.728 337.304C563.689 337.304 535.366 308.98 535.366 271.942C535.366 234.903 563.689 206.58 600.728 206.58ZM600.728 515.961C546.259 515.961 498.327 487.638 470.004 446.241C470.004 402.666 557.153 378.7 600.728 378.7C644.302 378.7 731.451 402.666 731.451 446.241C703.128 487.637 655.196 515.961 600.728 515.961Z" fill="#2E8B57"/>
</g>
<defs>
<filter id="filter0_d_124_30" x="88" y="102" width="1036" height="1008.4" filterUnits="userSpaceOnUse" color-interpolation-filters="sRGB">
<feFlood flood-opacity="0" result="BackgroundImageFix"/>
<feColorMatrix in="SourceAlpha" type="matrix" values="0 0 0 0 0 0 0 0 0 0 0 0 0 0 0 0 0 0 127 0" result="hardAlpha"/>
<feOffset dx="8" dy="8"/>
<feGaussianBlur stdDeviation="2"/>
<feComposite in2="hardAlpha" operator="out"/>
<feColorMatrix type="matrix" values="0 0 0 0 0 0 0 0 0 0 0 0 0 0 0 0 0 0 0.25 0"/>
<feBlend mode="normal" in2="BackgroundImageFix" result="effect1_dropShadow_124_30"/>
<feBlend mode="normal" in="SourceGraphic" in2="effect1_dropShadow_124_30" result="shape"/>
</filter>
</defs>
</svg>
